<svg width="42" height="33" viewBox="0 0 42 33" fill="none" xmlns="http://www.w3.org/2000/svg">
<path d="M41.7365 11.0603L40.6425 9.16539C40.416 8.77313 39.9147 8.63869 39.522 8.86517C39.1296 9.09165 38.9952 9.59334 39.2218 9.98568L40.3158 11.8806C40.3735 11.9805 40.3606 12.0757 40.3478 12.1235C40.3351 12.1713 40.2985 12.2603 40.1986 12.3179L37.3056 13.9882C37.1526 14.0763 36.9565 14.0237 36.8683 13.871L31.0483 3.79078C30.9601 3.63788 31.0126 3.44167 31.1655 3.35333L34.0585 1.68314C34.2114 1.59504 34.4077 1.64737 34.4959 1.80027L35.5305 3.59219C35.757 3.98462 36.2587 4.11906 36.651 3.89242C37.0433 3.66594 37.1778 3.16425 36.9512 2.77191L35.9167 0.979986C35.3762 0.0437914 34.1748 -0.278336 33.2382 0.262316L30.3453 1.93259C29.9057 2.18638 29.6017 2.58578 29.4585 3.03497H21.2573C20.1058 3.03497 19.0233 3.48334 18.209 4.29756L17.3687 5.13786C16.6319 4.96224 15.8771 4.87192 15.118 4.87192H12.5715C12.4443 4.38049 12.1282 3.93819 11.6549 3.66487L8.76192 1.9946C8.3083 1.73268 7.77971 1.6632 7.274 1.79872C6.76813 1.93423 6.34527 2.25873 6.08344 2.71227L0.263574 12.7925C0.00173793 13.2461 -0.0679045 13.7745 0.067607 14.2805C0.203119 14.7864 0.527625 15.2092 0.981244 15.471L3.87424 17.1413C4.18225 17.3191 4.51882 17.4036 4.85128 17.4036C4.97244 17.4036 5.09294 17.3919 5.21139 17.3699L7.57923 19.7378C7.54297 19.924 7.52419 20.1148 7.52419 20.3088C7.52419 21.097 7.83114 21.8381 8.38853 22.3954C8.92221 22.929 9.61108 23.2147 10.3112 23.2533C10.3005 23.3562 10.2946 23.4601 10.2946 23.5649C10.2946 24.3532 10.6016 25.0942 11.159 25.6515C11.7164 26.2089 12.4574 26.5159 13.2456 26.5159C13.267 26.5159 13.2882 26.5148 13.3095 26.5143C13.309 26.5356 13.308 26.5568 13.308 26.5782C13.308 27.3665 13.6149 28.1076 14.1723 28.6649C14.7297 29.2223 15.4707 29.5292 16.2589 29.5292C16.2804 29.5292 16.3015 29.5281 16.3228 29.5276C16.3224 29.549 16.3213 29.5701 16.3213 29.5915C16.3213 30.3798 16.6282 31.1209 17.1856 31.6782C17.743 32.2355 18.4841 32.5425 19.2723 32.5425C20.0605 32.5425 20.8016 32.2356 21.3589 31.6782L22.5259 30.5113C22.868 30.1692 23.1075 29.763 23.2462 29.3312C23.7647 29.7138 24.3807 29.9051 24.997 29.9051C25.7525 29.905 26.5084 29.6174 27.0836 29.0421C27.4278 28.6979 27.6761 28.2836 27.8161 27.8315C28.2909 28.142 28.8456 28.309 29.4262 28.309C30.2144 28.309 30.9556 28.0021 31.5129 27.4447C31.927 27.0304 32.2026 26.5148 32.3171 25.9537C32.6133 26.0518 32.9264 26.1036 33.2475 26.1036C34.0357 26.1036 34.7769 25.7967 35.3342 25.2392C36.4848 24.0886 36.4848 22.2164 35.3342 21.0658L33.4197 19.1513L36.9144 15.6566C36.992 15.6658 37.0701 15.6711 37.1486 15.6711C37.4811 15.6711 37.8178 15.5866 38.1257 15.4089L41.0187 13.7387C41.4722 13.4767 41.7967 13.054 41.9323 12.548C42.0679 12.0421 41.9984 11.5139 41.7365 11.0603ZM1.80145 14.0503C1.70154 13.9926 1.66512 13.9038 1.65232 13.8559C1.63952 13.8081 1.62665 13.7129 1.68439 13.6129L7.50426 3.53256C7.56192 3.43265 7.65084 3.39623 7.69866 3.38343C7.71909 3.37802 7.74813 3.37252 7.78242 3.37252C7.8286 3.37252 7.8843 3.38245 7.94155 3.41542L10.8345 5.08569C10.9874 5.17395 11.04 5.37017 10.9518 5.52307L5.1319 15.6033C5.04356 15.7562 4.84751 15.8088 4.69452 15.7206L1.80145 14.0503ZM9.16476 20.3087C9.16476 19.9586 9.3011 19.6296 9.54866 19.382L10.2566 18.6741C10.512 18.4186 10.8476 18.2909 11.1832 18.2909C11.5187 18.2909 11.8544 18.4187 12.1098 18.6741C12.3574 18.9217 12.4937 19.2507 12.4937 19.6007C12.4937 19.9507 12.3574 20.2798 12.1098 20.5273L11.4019 21.2352C10.891 21.7462 10.0596 21.7462 9.54866 21.2352C9.3011 20.9878 9.16476 20.6587 9.16476 20.3087ZM13.2457 24.8753C12.8956 24.8753 12.5666 24.739 12.3191 24.4915C12.0715 24.244 11.9352 23.9149 11.9352 23.5649C11.9352 23.2149 12.0715 22.8858 12.3191 22.6383L13.486 21.4714C13.7414 21.216 14.077 21.0883 14.4126 21.0883C14.7482 21.0883 15.0838 21.216 15.3392 21.4714C15.5868 21.7189 15.7231 22.048 15.7231 22.398C15.7231 22.748 15.5868 23.0771 15.3392 23.3246L14.1724 24.4915C13.9248 24.7391 13.5957 24.8753 13.2457 24.8753ZM16.259 27.8887C15.9089 27.8887 15.5799 27.7524 15.3324 27.5049C15.0849 27.2574 14.9485 26.9283 14.9485 26.5783C14.9485 26.2283 15.0849 25.8992 15.3324 25.6516L16.4993 24.4848C16.7547 24.2293 17.0903 24.1016 17.4259 24.1016C17.7615 24.1016 18.0971 24.2293 18.3526 24.4848C18.6001 24.7323 18.7365 25.0614 18.7365 25.4114C18.7365 25.7615 18.6001 26.0906 18.3526 26.338L17.1857 27.5049C16.9382 27.7524 16.6091 27.8887 16.259 27.8887ZM21.3659 29.3514L20.199 30.5183C19.9515 30.7658 19.6225 30.9021 19.2724 30.9021C18.9223 30.9021 18.5932 30.7658 18.3458 30.5183C18.0982 30.2707 17.9619 29.9417 17.9619 29.5917C17.9619 29.2416 18.0982 28.9126 18.3458 28.665L19.5126 27.4982C19.7681 27.2427 20.1036 27.1149 20.4393 27.1149C20.7748 27.1149 21.1105 27.2427 21.3659 27.4981C21.8768 28.009 21.8768 28.8404 21.3659 29.3514ZM34.1744 24.0793C33.9268 24.3269 33.5978 24.4632 33.2477 24.4632C32.8977 24.4632 32.5686 24.3269 32.3211 24.0793L24.4914 16.2496C24.1711 15.9294 23.6519 15.9293 23.3313 16.2496C23.011 16.57 23.011 17.0894 23.3313 17.4097L30.353 24.4314C30.6005 24.6789 30.7369 25.008 30.7369 25.358C30.7369 25.7081 30.6005 26.0372 30.353 26.2847C30.1055 26.5322 29.7765 26.6685 29.4264 26.6685C29.0763 26.6685 28.7473 26.5322 28.4998 26.2847L20.0622 17.8472C19.7419 17.5269 19.2225 17.5269 18.9021 17.8472C18.5818 18.1675 18.5818 18.6869 18.9021 19.0072L25.9237 26.029C26.1713 26.2764 26.3076 26.6055 26.3076 26.9556C26.3076 27.3056 26.1713 27.6347 25.9237 27.8821C25.4129 28.3931 24.5815 28.3933 24.0705 27.8821L22.5262 26.3379C22.5241 26.3357 22.5217 26.3339 22.5195 26.3319C21.9288 25.7446 21.1495 25.4601 20.3755 25.4767C20.376 25.455 20.377 25.4333 20.377 25.4114C20.377 24.6232 20.0701 23.8821 19.5127 23.3247C18.9212 22.7332 18.139 22.4467 17.3621 22.4633C17.3626 22.4416 17.3636 22.4199 17.3636 22.3981C17.3636 21.6098 17.0567 20.8688 16.4993 20.3114C15.8524 19.6645 14.9774 19.3814 14.1309 19.4619C14.097 18.7259 13.7944 18.0386 13.2699 17.5141C12.1193 16.3635 10.2471 16.3637 9.09643 17.5141L8.38853 18.222C8.38771 18.2229 8.38689 18.2238 8.38607 18.2246L6.56453 16.403L12.2748 6.5125H15.1179C15.3965 6.5125 15.6743 6.52727 15.9506 6.55598L15.0129 7.49365C14.4555 8.05103 14.1486 8.79216 14.1486 9.58038C14.1486 10.3687 14.4555 11.1097 15.0129 11.6671C15.5883 12.2424 16.344 12.5301 17.0996 12.5301C17.8553 12.5301 18.611 12.2425 19.1863 11.6671L21.4008 9.45266L34.1743 22.2261C34.6852 22.737 34.6852 23.5684 34.1744 24.0793ZM26.2932 12.0248C27.4869 11.1608 28.2186 9.76666 28.2186 8.252C28.2186 7.79896 27.8513 7.43172 27.3983 7.43172C26.9453 7.43172 26.578 7.79896 26.578 8.252C26.578 9.32355 26.012 10.3009 25.1089 10.8406L21.9846 7.71627C21.6642 7.39595 21.1457 7.38758 20.8253 7.70791L18.0263 10.507C17.5153 11.0179 16.6839 11.0178 16.173 10.507C15.9254 10.2595 15.7891 9.93039 15.7891 9.58038C15.7891 9.23036 15.9254 8.90126 16.173 8.6537L19.3691 5.45761C19.8734 4.9533 20.544 4.67555 21.2573 4.67555H29.6648L35.4474 14.6914C35.4611 14.7151 35.4761 14.7377 35.4906 14.7606L32.2598 17.9914L26.2932 12.0248Z" fill="#FFC38E"/>
<path d="M38.0868 7.19947C38.3025 7.19947 38.5134 7.11169 38.6668 6.95911C38.8192 6.80571 38.9071 6.59489 38.9071 6.37915C38.9071 6.16259 38.8193 5.95177 38.6668 5.79837C38.5134 5.64579 38.3025 5.55884 38.0868 5.55884C37.8702 5.55884 37.6594 5.64579 37.5068 5.79837C37.3534 5.95177 37.2665 6.16259 37.2665 6.37915C37.2665 6.59489 37.3534 6.80571 37.5068 6.95911C37.6594 7.11177 37.8702 7.19947 38.0868 7.19947Z" fill="#FFC38E"/>
</svg>
