<svg width="32" height="32" viewBox="0 0 32 32" fill="none" xmlns="http://www.w3.org/2000/svg">
<path d="M5.62623 14.8287C5.71832 14.9188 5.84199 14.9688 5.97049 14.9679C6.09899 14.9671 6.22197 14.9153 6.31283 14.8239C6.40368 14.7326 6.45511 14.6089 6.45597 14.4797C6.45684 14.3505 6.40707 14.2261 6.31744 14.1335L1.18171 8.969L2.86511 7.29493L4.25528 8.6929L10.5957 15.0688L0.558195 25.1625C0.437141 25.2842 0.341114 25.4288 0.2756 25.5878C0.210085 25.7468 0.176365 25.9173 0.176365 26.0895C0.176365 26.2616 0.210085 26.4321 0.2756 26.5911C0.341114 26.7502 0.437141 26.8947 0.558195 27.0164L5.13291 31.6168C5.37758 31.8622 5.70907 32 6.05465 32C6.40024 32 6.73172 31.8622 6.9764 31.6168L17.0139 21.523L24.2502 28.7999C24.271 28.8204 24.2936 28.839 24.3178 28.8554C24.3244 28.8601 24.3311 28.8644 24.3379 28.8687C24.3589 28.882 24.3808 28.8936 24.4036 28.9035C24.4071 28.905 24.4104 28.907 24.414 28.9085C24.4352 28.917 24.457 28.924 24.4792 28.9295L29.7016 30.2235C29.7833 30.2437 29.8688 30.2424 29.9498 30.2197C30.0309 30.1969 30.1047 30.1536 30.1642 30.0938C30.2237 30.0339 30.2668 29.9597 30.2894 29.8782C30.312 29.7967 30.3133 29.7107 30.2932 29.6286L29.0064 24.3769C29.0009 24.3546 28.9939 24.3327 28.9854 24.3113C28.984 24.3077 28.9819 24.3044 28.9804 24.3008C28.9706 24.2779 28.959 24.2559 28.9459 24.2348C28.9416 24.2279 28.9372 24.2212 28.9326 24.2145C28.9162 24.1902 28.8977 24.1675 28.8773 24.1465L21.6411 16.8698L31.6182 6.8376C31.7392 6.71588 31.8353 6.57137 31.9008 6.41232C31.9663 6.25327 32 6.08281 32 5.91065C32 5.7385 31.9663 5.56804 31.9008 5.40899C31.8353 5.24994 31.7392 5.10543 31.6182 4.9837L27.0435 0.383285C26.7988 0.13784 26.4673 0 26.1217 0C25.7761 0 25.4446 0.13784 25.2 0.383285L22.5775 3.02035L15.2232 10.416L7.15434 2.30166C7.06266 2.20948 6.93833 2.15769 6.80869 2.15769C6.67904 2.15769 6.55471 2.20948 6.46304 2.30166L6.22383 2.54221L5.56178 1.86531C5.33478 1.63178 5.06353 1.44639 4.76407 1.32008C4.4646 1.19377 4.143 1.1291 3.81826 1.12991H3.81647C3.33239 1.12994 2.85918 1.27431 2.4567 1.54478C2.05421 1.81524 1.74052 2.19965 1.55528 2.6494C1.37005 3.09914 1.32159 3.59402 1.41604 4.07146C1.51049 4.54889 1.7436 4.98745 2.0859 5.33166L2.76367 6.01307L0.145127 8.61752C0.0993157 8.66307 0.0629105 8.71728 0.0380047 8.77703C0.013099 8.83678 0.00018366 8.90089 1.9446e-06 8.96568C-0.00017977 9.03047 0.0123756 9.09465 0.0369458 9.15454C0.061516 9.21443 0.0976164 9.26885 0.143172 9.31466L5.62623 14.8287ZM27.8407 24.4945L24.5961 27.7571L5.29235 8.34543L8.53685 5.08268L27.8407 24.4945ZM6.28534 30.922C6.22414 30.9833 6.14124 31.0178 6.05482 31.0178C5.96839 31.0178 5.8855 30.9833 5.82429 30.922L1.24958 26.3217C1.21931 26.2912 1.19531 26.2551 1.17893 26.2153C1.16255 26.1756 1.15412 26.133 1.15412 26.0899C1.15412 26.0469 1.16255 26.0043 1.17893 25.9645C1.19531 25.9247 1.21931 25.8886 1.24958 25.8582L8.09062 18.9788L10.2741 21.1745C10.3194 21.2208 10.3733 21.2576 10.4328 21.2827C10.4922 21.3079 10.5561 21.321 10.6206 21.3213C10.6851 21.3216 10.7491 21.309 10.8087 21.2842C10.8684 21.2595 10.9226 21.2232 10.9682 21.1773C11.0139 21.1314 11.05 21.0769 11.0746 21.0169C11.0991 20.9569 11.1116 20.8926 11.1114 20.8277C11.1111 20.7628 11.098 20.6986 11.073 20.6388C11.0479 20.579 11.0113 20.5248 10.9653 20.4793L8.78184 18.2836L11.2872 15.7642L16.3229 20.828L6.28534 30.922ZM25.5546 28.1837L28.2647 25.4584L29.1508 29.0746L25.5546 28.1837ZM17.9789 9.03511L20.1624 11.2308C20.2077 11.2771 20.2616 11.3139 20.3211 11.3391C20.3805 11.3642 20.4444 11.3773 20.5089 11.3776C20.5734 11.3779 20.6374 11.3653 20.697 11.3405C20.7567 11.3158 20.8109 11.2795 20.8565 11.2336C20.9022 11.1877 20.9383 11.1332 20.9629 11.0732C20.9874 11.0132 20.9999 10.9489 20.9997 10.884C20.9994 10.8191 20.9863 10.7549 20.9613 10.6951C20.9362 10.6353 20.8996 10.5811 20.8536 10.5356L18.6701 8.33986L22.923 4.06315L24.2153 5.36263C24.2604 5.40929 24.3144 5.44646 24.374 5.47199C24.4335 5.49752 24.4975 5.51089 24.5623 5.51132C24.627 5.51176 24.6912 5.49926 24.7511 5.47454C24.8111 5.44982 24.8655 5.41338 24.9113 5.36734C24.957 5.32129 24.9933 5.26655 25.0179 5.20631C25.0424 5.14606 25.0549 5.08151 25.0544 5.01639C25.054 4.95128 25.0407 4.8869 25.0153 4.827C24.9899 4.7671 24.9529 4.71287 24.9065 4.66746L23.6143 3.36814L25.8911 1.07854C25.9523 1.01719 26.0352 0.982741 26.1216 0.982741C26.208 0.982741 26.2909 1.01719 26.3521 1.07854L30.9269 5.67888C30.9879 5.7404 31.0221 5.82373 31.0221 5.91061C31.0221 5.99749 30.9879 6.08083 30.9269 6.14235L20.9502 16.175L15.9145 11.1111L17.9789 9.03511ZM7.84563 4.3875L4.60105 7.65026L3.56406 6.60746L6.80865 3.34471L7.84563 4.3875ZM2.77744 4.63665C2.57186 4.42993 2.43185 4.16655 2.37513 3.87981C2.3184 3.59307 2.3475 3.29586 2.45875 3.02575C2.57001 2.75565 2.75841 2.52478 3.00014 2.36236C3.24187 2.19993 3.52606 2.11323 3.81679 2.11322H3.81785C4.01285 2.11277 4.20596 2.15162 4.38578 2.22748C4.5656 2.30334 4.72847 2.41468 4.86478 2.55491L5.53286 3.23754L3.5507 5.23039L3.45864 5.32191L2.77744 4.63665Z" fill="#FFC38E"/>
</svg>
