<svg width="32" height="32" viewBox="0 0 32 32" fill="none" xmlns="http://www.w3.org/2000/svg">
<g clip-path="url(#clip0)">
<path d="M26.1333 3.20007H18.1333V4.26676H25.6V19.2H26.6666V3.73338C26.6666 3.43901 26.4282 3.20007 26.1333 3.20007Z" fill="#FFC38E"/>
<path d="M25.6 22.3999V30.9332H6.40006V18.6666H5.33337V31.4666C5.33337 31.7615 5.57231 31.9999 5.86668 31.9999H26.1333C26.4282 31.9999 26.6666 31.7615 26.6666 31.4666V22.3999H25.6Z" fill="#FFC38E"/>
<path d="M5.86668 3.20007C5.57231 3.20007 5.33337 3.43901 5.33337 3.73338V10.6667H6.39999V4.26669H13.8667V3.20007H5.86668Z" fill="#FFC38E"/>
<path d="M24 5.33325H20.8V6.39994H23.4667V21.3332H24.5334V5.86662C24.5333 5.57219 24.295 5.33325 24 5.33325Z" fill="#FFC38E"/>
<path d="M23.4667 24.5332V28.7998H8.53336V16.5332H7.46667V29.3332C7.46667 29.6281 7.70561 29.8665 7.99998 29.8665H23.9999C24.2949 29.8665 24.5332 29.6281 24.5332 29.3332V24.5332H23.4667Z" fill="#FFC38E"/>
<path d="M7.99999 5.33325C7.70561 5.33325 7.46667 5.57219 7.46667 5.86656V9.59986H8.53336V6.39987H11.2V5.33325H7.99999Z" fill="#FFC38E"/>
<path d="M22.3663 7.81278L20.7663 3.54611C20.6879 3.33811 20.489 3.19999 20.2666 3.19999H18.6666V2.66668C18.6666 1.19631 17.4703 0 15.9999 0C14.5295 0 13.3332 1.19625 13.3332 2.66668V3.19999H11.7332C11.5108 3.19999 11.3119 3.33811 11.2335 3.54611L9.63347 7.81278C9.57266 7.97653 9.59509 8.15997 9.69478 8.30397C9.79453 8.4474 9.95822 8.53328 10.1332 8.53328H21.8664C22.0414 8.53328 22.2051 8.4474 22.3054 8.30397C22.4047 8.15997 22.4277 7.97653 22.3663 7.81278ZM10.9029 7.46666L12.1029 4.26667H13.8666C14.161 4.26667 14.4 4.02773 14.4 3.73336V2.66668C14.4 1.78456 15.1178 1.06668 15.9999 1.06668C16.8821 1.06668 17.5999 1.78456 17.5999 2.66668V3.73336C17.5999 4.02773 17.8383 4.26667 18.1333 4.26667H19.897L21.097 7.46666H10.9029Z" fill="#FFC38E"/>
<path d="M21.3334 13.8667H12.2667V14.9334H21.3334V13.8667Z" fill="#FFC38E"/>
<path d="M11.2 13.8667H10.1333V14.9334H11.2V13.8667Z" fill="#FFC38E"/>
<path d="M18.6667 17.0667H12.2667V18.1333H18.6667V17.0667Z" fill="#FFC38E"/>
<path d="M11.2 17.0667H10.1333V18.1333H11.2V17.0667Z" fill="#FFC38E"/>
<path d="M21.3334 20.2666H12.2667V21.3333H21.3334V20.2666Z" fill="#FFC38E"/>
<path d="M11.2 20.2666H10.1333V21.3333H11.2V20.2666Z" fill="#FFC38E"/>
<path d="M18.6667 23.4667H12.2667V24.5334H18.6667V23.4667Z" fill="#FFC38E"/>
<path d="M11.2 23.4667H10.1333V24.5334H11.2V23.4667Z" fill="#FFC38E"/>
<path d="M18.6667 10.6666H13.3334V11.7333H18.6667V10.6666Z" fill="#FFC38E"/>
<path d="M8.5579 9.06665C7.71366 9.06984 6.91791 9.39946 6.31629 9.99627L5.86666 10.4459L5.41598 9.99471C4.82448 9.40859 4.04055 9.07846 3.19999 9.06671C1.43518 9.06671 0 10.5019 0 12.2667V12.7206C0 13.6176 0.383998 14.4763 1.05225 15.0747L5.51092 19.064C5.61223 19.1552 5.73973 19.2 5.86666 19.2C6.00323 19.2 6.13973 19.1472 6.24373 19.0437L10.8053 14.4827C11.3915 13.8913 11.7216 13.1073 11.7333 12.2742C11.7333 12.2721 11.7333 12.2694 11.7333 12.2667C11.7333 10.5195 10.312 9.08421 8.5579 9.06665ZM10.0496 13.7296L5.84648 17.9327L1.76381 14.2799C1.32112 13.8831 1.06675 13.3146 1.06675 12.7199V12.2666C1.06675 11.0901 2.02355 10.1333 3.19261 10.1333C3.7478 10.1413 4.27048 10.3611 4.66298 10.7504L5.48967 11.5771C5.69823 11.7856 6.03529 11.7856 6.24379 11.5771L7.06885 10.752C7.46885 10.3558 7.99897 10.1355 8.55472 10.1333C9.7179 10.1451 10.6646 11.0997 10.6667 12.263C10.6581 12.8165 10.4384 13.3381 10.0496 13.7296Z" fill="#FFC38E"/>
<path d="M31.8437 16.6895L30.2437 15.0895C30.0352 14.881 29.6981 14.881 29.4896 15.0895L19.8896 24.6895C19.7894 24.7892 19.7334 24.9247 19.7334 25.0665V26.6665C19.7334 26.9615 19.9718 27.1999 20.2667 27.1999H21.8667C22.0086 27.1999 22.144 27.1439 22.2438 27.0436L31.8437 17.4436C32.0522 17.2351 32.0522 16.898 31.8437 16.6895ZM21.6459 26.1332H20.8V25.2873L29.8667 16.2206L30.7125 17.0665L21.6459 26.1332Z" fill="#FFC38E"/>
<path d="M28.6435 16.6902L27.8893 17.4445L29.4894 19.0446L30.2437 18.2903L28.6435 16.6902Z" fill="#FFC38E"/>
</g>
<defs>
<clipPath id="clip0">
<rect width="32" height="32" fill="white"/>
</clipPath>
</defs>
</svg>
