<svg width="46" height="33" viewBox="0 0 46 33" fill="none" xmlns="http://www.w3.org/2000/svg">
<path d="M43.5742 0H2.42578C1.78266 0.000760869 1.16609 0.256578 0.711335 0.711335C0.256578 1.16609 0.000760869 1.78266 0 2.42578V29.8648C0.000760869 30.5079 0.256578 31.1245 0.711335 31.5792C1.16609 32.034 1.78266 32.2898 2.42578 32.2906H43.5742C44.2173 32.2898 44.8339 32.034 45.2887 31.5792C45.7434 31.1245 45.9992 30.5079 46 29.8648V2.42578C45.9992 1.78266 45.7434 1.16609 45.2887 0.711335C44.8339 0.256578 44.2173 0.000760869 43.5742 0ZM2.42578 1.25781H43.5742C43.8839 1.25819 44.1807 1.38137 44.3997 1.60032C44.6186 1.81928 44.7418 2.11613 44.7422 2.42578V5.29827H1.25781V2.42578C1.25819 2.11613 1.38137 1.81928 1.60032 1.60032C1.81928 1.38137 2.11613 1.25819 2.42578 1.25781ZM44.7422 9.01887H1.25781V6.55608H44.7422V9.01887ZM43.5742 31.0327H2.42578C2.11613 31.0324 1.81928 30.9092 1.60032 30.6902C1.38137 30.4713 1.25819 30.1744 1.25781 29.8648V10.2767H44.7422V29.8648C44.7418 30.1744 44.6186 30.4713 44.3997 30.6902C44.1807 30.9092 43.8839 31.0324 43.5742 31.0327Z" fill="#FFC38E"/>
<path d="M33.0847 15.9656H28.7611C28.5943 15.9656 28.4343 16.0318 28.3164 16.1498C28.1985 16.2677 28.1322 16.4277 28.1322 16.5945V25.7097C28.1322 25.8765 28.1985 26.0364 28.3164 26.1544C28.4343 26.2723 28.5943 26.3386 28.7611 26.3386C28.9279 26.3386 29.0879 26.2723 29.2058 26.1544C29.3238 26.0364 29.39 25.8765 29.39 25.7097V21.7817H33.0847C33.6326 21.781 34.1578 21.5631 34.5452 21.1757C34.9326 20.7883 35.1505 20.2631 35.1512 19.7153V18.0331C35.1509 17.485 34.9331 16.9595 34.5457 16.5718C34.1582 16.1842 33.6328 15.9661 33.0847 15.9656ZM33.8933 19.7142C33.8931 19.9286 33.8078 20.1341 33.6562 20.2857C33.5046 20.4372 33.2991 20.5225 33.0847 20.5228H29.39V17.2234H33.0847C33.2991 17.2237 33.5046 17.309 33.6562 17.4605C33.8078 17.6121 33.8931 17.8176 33.8933 18.032V19.7142Z" fill="#FFC38E"/>
<path d="M17.4297 15.9958C17.2705 15.9454 17.0977 15.9603 16.9494 16.0373C16.8012 16.1143 16.6895 16.247 16.6391 16.4062L14.3581 23.6232L12.0772 16.4062C12.0534 16.3262 12.0139 16.2517 11.961 16.1871C11.9082 16.1225 11.8429 16.0691 11.7692 16.0299C11.6955 15.9908 11.6147 15.9667 11.5315 15.9591C11.4484 15.9516 11.3646 15.9606 11.2849 15.9857C11.2053 16.0109 11.1315 16.0516 11.0678 16.1056C11.0041 16.1596 10.9518 16.2257 10.9139 16.3001C10.8761 16.3745 10.8534 16.4557 10.8472 16.5389C10.841 16.6222 10.8515 16.7058 10.878 16.785L13.7587 25.8995C13.799 26.0269 13.8789 26.1382 13.9867 26.2171C14.0945 26.2961 14.2247 26.3387 14.3583 26.3387C14.492 26.3387 14.6221 26.2961 14.73 26.2171C14.8378 26.1382 14.9176 26.0269 14.9579 25.8995L17.8383 16.785C17.8887 16.6262 17.8739 16.4538 17.7973 16.3059C17.7207 16.1579 17.5885 16.0464 17.4297 15.9958Z" fill="#FFC38E"/>
<path d="M24.5611 17.2234C24.7279 17.2234 24.8879 17.1571 25.0058 17.0392C25.1237 16.9212 25.19 16.7613 25.19 16.5945C25.19 16.4277 25.1237 16.2677 25.0058 16.1498C24.8879 16.0318 24.7279 15.9656 24.5611 15.9656H21.4388C21.272 15.9656 21.1121 16.0318 20.9941 16.1498C20.8762 16.2677 20.8099 16.4277 20.8099 16.5945C20.8099 16.7613 20.8762 16.9212 20.9941 17.0392C21.1121 17.1571 21.272 17.2234 21.4388 17.2234H22.3711V25.0808H21.4388C21.272 25.0808 21.1121 25.147 20.9941 25.265C20.8762 25.3829 20.8099 25.5429 20.8099 25.7097C20.8099 25.8765 20.8762 26.0364 20.9941 26.1544C21.1121 26.2723 21.272 26.3386 21.4388 26.3386H24.5611C24.7279 26.3386 24.8879 26.2723 25.0058 26.1544C25.1237 26.0364 25.19 25.8765 25.19 25.7097C25.19 25.5429 25.1237 25.3829 25.0058 25.265C24.8879 25.147 24.7279 25.0808 24.5611 25.0808H23.6289V17.2234H24.5611Z" fill="#FFC38E"/>
<path d="M42.4961 16.095C41.8351 16.0943 41.2014 15.8314 40.734 15.364C40.2666 14.8967 40.0036 14.263 40.0028 13.6021C40.0028 13.5194 39.9866 13.4376 39.955 13.3613C39.9234 13.285 39.8771 13.2156 39.8187 13.1572C39.7602 13.0988 39.6909 13.0525 39.6146 13.0209C39.5382 12.9893 39.4564 12.9731 39.3738 12.9731H6.6258C6.459 12.9731 6.29904 13.0394 6.18109 13.1573C6.06315 13.2753 5.99689 13.4353 5.99689 13.6021C5.99613 14.263 5.73323 14.8967 5.26587 15.364C4.79851 15.8314 4.16485 16.0943 3.50391 16.095C3.33714 16.0951 3.17723 16.1614 3.05931 16.2793C2.94139 16.3973 2.8751 16.5572 2.875 16.7239V25.6645C2.875 25.8313 2.94126 25.9912 3.0592 26.1092C3.17715 26.2271 3.33711 26.2934 3.50391 26.2934C4.16489 26.2942 4.79854 26.5572 5.26589 27.0246C5.73324 27.492 5.99613 28.1257 5.99689 28.7867C5.99689 28.9535 6.06315 29.1135 6.18109 29.2314C6.29904 29.3494 6.459 29.4156 6.6258 29.4156H39.3738C39.4564 29.4157 39.5382 29.3994 39.6146 29.3679C39.6909 29.3363 39.7602 29.2899 39.8187 29.2315C39.8771 29.1731 39.9234 29.1038 39.955 29.0274C39.9866 28.9511 40.0028 28.8693 40.0028 28.7867C40.0036 28.1257 40.2666 27.492 40.734 27.0246C41.2014 26.5572 41.8351 26.2942 42.4961 26.2934C42.6629 26.2934 42.8229 26.2271 42.9408 26.1092C43.0587 25.9912 43.125 25.8313 43.125 25.6645V16.7239C43.1249 16.5572 43.0586 16.3973 42.9407 16.2793C42.8228 16.1614 42.6629 16.0951 42.4961 16.095ZM41.8672 25.0884C41.1011 25.22 40.3946 25.5858 39.8449 26.1355C39.2952 26.6852 38.9294 27.3917 38.7978 28.1578H7.20223C7.0706 27.3917 6.70478 26.6852 6.15511 26.1355C5.60544 25.5858 4.89894 25.22 4.13281 25.0884V17.3004C4.89892 17.1687 5.6054 16.8029 6.15506 16.2532C6.70472 15.7035 7.07055 14.9971 7.20223 14.231H38.7978C38.9294 14.9971 39.2953 15.7035 39.8449 16.2532C40.3946 16.8029 41.1011 17.1687 41.8672 17.3004V25.0884Z" fill="#FFC38E"/>
</svg>
