<svg width="29" height="33" viewBox="0 0 29 33" fill="none" xmlns="http://www.w3.org/2000/svg">
<path d="M28.9139 28.9981L24.0858 20.6356C24.2592 20.4335 24.4949 20.2841 24.7699 20.2192C25.5305 20.04 26.1611 19.5335 26.5001 18.8295C26.8392 18.1255 26.8419 17.3166 26.5079 16.6103C26.2522 16.0698 26.3983 15.4295 26.8633 15.0534C27.4707 14.5619 27.8192 13.8319 27.8192 13.0506C27.8192 12.2692 27.4707 11.5392 26.8633 11.0478C26.3983 10.6717 26.2522 10.0314 26.5079 9.4908C26.842 8.78444 26.8392 7.97556 26.5001 7.27158C26.1611 6.5676 25.5305 6.06104 24.7699 5.88185C24.1878 5.74471 23.7783 5.23129 23.7741 4.63324C23.7688 3.8519 23.4152 3.12436 22.8043 2.63719C22.1934 2.15002 21.4053 1.96723 20.6425 2.13583C20.0584 2.26475 19.4668 1.97988 19.2036 1.44289C18.8596 0.741289 18.2255 0.239161 17.4637 0.0653009C16.7018 -0.108624 15.9126 0.0687036 15.2983 0.55157C14.8282 0.921184 14.1715 0.921184 13.7014 0.55157C13.0871 0.0687036 12.2979 -0.108495 11.5361 0.0653009C10.7742 0.239161 10.1401 0.741289 9.79618 1.44289C9.53295 1.97988 8.94107 2.26494 8.35734 2.13583C7.59436 1.96736 6.80634 2.15002 6.19551 2.63719C5.58463 3.12436 5.23113 3.8519 5.22567 4.63324C5.2215 5.23122 4.81201 5.74471 4.22989 5.88185C3.46935 6.06104 2.83869 6.5676 2.4997 7.27158C2.16064 7.97556 2.15788 8.78444 2.49193 9.49074C2.74765 10.0313 2.60152 10.6716 2.13657 11.0477C1.52908 11.5392 1.18066 12.2692 1.18066 13.0505C1.18066 13.8319 1.52908 14.5619 2.13657 15.0533C2.60152 15.4294 2.74765 16.0697 2.49193 16.6103C2.15782 17.3166 2.16064 18.1255 2.4997 18.8295C2.83869 19.5335 3.46935 20.04 4.22995 20.2192C4.505 20.284 4.74068 20.4335 4.9141 20.6356L0.0860055 28.9981C-0.0440045 29.2234 -0.0253216 29.5048 0.133258 29.7108C0.291903 29.9168 0.559114 30.0068 0.810081 29.9388L4.17281 29.0265L5.06414 32.3948C5.13065 32.6463 5.34226 32.8326 5.60004 32.867C5.62848 32.8708 5.65685 32.8726 5.68504 32.8726C5.91212 32.8726 6.12515 32.7519 6.24084 32.5516L10.3606 25.4161C10.6869 25.7181 11.0892 25.9338 11.5362 26.0358C12.2979 26.2096 13.0872 26.0324 13.7016 25.5496C14.1716 25.18 14.8284 25.18 15.2985 25.5496C15.7582 25.9109 16.3157 26.1011 16.8866 26.1011C17.0785 26.1011 17.2721 26.0796 17.4638 26.0358C17.9108 25.9338 18.3132 25.7181 18.6394 25.4161L22.7592 32.5516C22.8749 32.752 23.0879 32.8726 23.315 32.8726C23.3431 32.8726 23.3715 32.8708 23.4 32.867C23.6577 32.8326 23.8694 32.6462 23.9359 32.3948L24.8272 29.0265L28.1899 29.9388C28.4409 30.007 28.7082 29.9168 28.8668 29.7108C29.0253 29.5048 29.044 29.2234 28.9139 28.9981ZM5.90724 30.5613L5.24891 28.0735C5.20513 27.9082 5.09733 27.7672 4.94928 27.6817C4.80116 27.5962 4.62518 27.5734 4.46018 27.6181L1.97645 28.2919L5.39549 22.37C5.55728 22.794 5.82988 23.1722 6.19564 23.464C6.80653 23.9511 7.59461 24.1339 8.35747 23.9653C8.78833 23.8702 9.22304 24.0009 9.5273 24.2914L5.90724 30.5613ZM17.1781 24.784C16.7958 24.8711 16.4001 24.7823 16.0921 24.5402C15.6233 24.1717 15.0617 23.9875 14.5 23.9875C13.9383 23.9875 13.3765 24.1717 12.9079 24.5402C12.5998 24.7824 12.2042 24.8713 11.8219 24.784C11.4398 24.6968 11.1218 24.445 10.9493 24.0931C10.4245 23.0224 9.24462 22.4543 8.08043 22.7115C7.69772 22.7961 7.30256 22.7044 6.99618 22.46C6.68981 22.2157 6.51248 21.8508 6.50972 21.4589C6.50144 20.2666 5.68504 19.2429 4.52445 18.9695C4.14296 18.8796 3.8267 18.6255 3.65663 18.2724C3.48662 17.9193 3.48521 17.5137 3.65277 17.1593C4.16254 16.0815 3.87119 14.805 2.94417 14.0551C2.63947 13.8086 2.46477 13.4425 2.46477 13.0506C2.46477 12.6587 2.63953 12.2925 2.94424 12.0461C3.87119 11.2962 4.16261 10.0196 3.65277 8.94174C3.48521 8.58747 3.48662 8.18178 3.65669 7.82873C3.8267 7.47561 4.14302 7.22156 4.52445 7.13168C5.68504 6.85824 6.50144 5.83453 6.50972 4.64223C6.51248 4.25034 6.68974 3.88541 6.99618 3.64112C7.30256 3.39677 7.69766 3.30502 8.0805 3.38964C9.24455 3.64664 10.4245 3.07871 10.9493 2.00807C11.1218 1.65617 11.4398 1.40431 11.8219 1.31712C12.2041 1.23 12.5998 1.31879 12.9079 1.56096C13.8453 2.29794 15.1546 2.29794 16.0921 1.56096C16.4002 1.31879 16.7959 1.23 17.1781 1.31712C17.5601 1.40431 17.8782 1.65617 18.0507 2.00807C18.5755 3.07871 19.7553 3.64664 20.9195 3.38964C21.3021 3.30496 21.6974 3.39677 22.0038 3.64112C22.3101 3.88548 22.4875 4.25034 22.4902 4.64223C22.4985 5.83453 23.3149 6.85824 24.4755 7.13168C24.857 7.22156 25.1733 7.47561 25.3433 7.82873C25.5133 8.18184 25.5147 8.58747 25.3472 8.9418C24.8374 10.0196 25.1288 11.2962 26.0558 12.0461C26.3605 12.2925 26.5352 12.6587 26.5352 13.0506C26.5352 13.4425 26.3604 13.8086 26.0557 14.0551C25.1288 14.805 24.8373 16.0815 25.3472 17.1594C25.5147 17.5137 25.5133 17.9194 25.3433 18.2724C25.1733 18.6255 24.8569 18.8796 24.4755 18.9695C23.3149 19.2429 22.4985 20.2666 22.4902 21.4589C22.4875 21.8508 22.3102 22.2157 22.0038 22.46C21.6974 22.7044 21.3022 22.796 20.9195 22.7115C19.7553 22.4542 18.5755 23.0224 18.0507 24.0931C17.8782 24.445 17.5601 24.6968 17.1781 24.784ZM24.5398 27.6181C24.3747 27.5734 24.1987 27.5963 24.0507 27.6817C23.9026 27.7673 23.7948 27.9082 23.751 28.0735L23.0927 30.5613L19.4727 24.2914C19.777 24.0008 20.2117 23.87 20.6425 23.9653C21.4055 24.1338 22.1934 23.9511 22.8043 23.464C23.1701 23.1723 23.4427 22.794 23.6045 22.37L27.0235 28.2919L24.5398 27.6181Z" fill="#FFC38E"/>
<path d="M17.5545 17.9058C17.687 17.9058 17.8194 17.8649 17.9319 17.7832C18.1563 17.6201 18.2507 17.3312 18.1657 17.0672L17.1537 13.9207L19.8225 11.9598C20.0461 11.7955 20.1389 11.5061 20.0525 11.2424C19.966 10.9787 19.7199 10.8004 19.4425 10.8004H16.1399L15.11 7.66254C15.0235 7.39893 14.7774 7.2207 14.5 7.2207C14.2226 7.2207 13.9765 7.39893 13.89 7.66254L12.8602 10.8004H9.55759C9.2801 10.8004 9.03395 10.9787 8.94753 11.2424C8.86105 11.5061 8.95383 11.7955 9.17751 11.9598L11.8463 13.9207L10.8343 17.0672C10.7494 17.3313 10.8437 17.6201 11.0681 17.7832C11.2927 17.9462 11.5965 17.9466 11.8214 17.7843L14.5001 15.8501L17.1789 17.7843C17.2909 17.8653 17.4226 17.9058 17.5545 17.9058ZM14.8757 14.5377C14.7635 14.4567 14.6317 14.4162 14.4999 14.4162C14.3681 14.4162 14.2363 14.4567 14.1241 14.5377L12.6555 15.5981L13.2101 13.8737C13.2947 13.6108 13.2017 13.3232 12.9791 13.1597L11.5156 12.0844H13.3251C13.6025 12.0844 13.8486 11.9061 13.935 11.6425L14.4999 9.92144L15.0647 11.6425C15.1513 11.9061 15.3973 12.0844 15.6747 12.0844H17.4842L16.0207 13.1597C15.7981 13.3232 15.7051 13.6107 15.7897 13.8737L16.3443 15.5981L14.8757 14.5377Z" fill="#FFC38E"/>
<path d="M23.4883 13.0506C23.4883 8.09443 19.4561 4.06226 14.4999 4.06226C9.54377 4.06226 5.5116 8.09443 5.5116 13.0506C5.5116 16.821 7.89203 20.2177 11.435 21.5027C11.7683 21.6235 12.1366 21.4514 12.2575 21.118C12.3784 20.7847 12.2062 20.4165 11.8729 20.2955C8.83606 19.1941 6.79571 16.2826 6.79571 13.0506C6.79571 8.80245 10.2519 5.34631 14.5 5.34631C18.7482 5.34631 22.2043 8.80245 22.2043 13.0506C22.2043 16.2828 20.1638 19.1944 17.1267 20.2957C16.7934 20.4166 16.6211 20.7848 16.742 21.1182C16.8367 21.3792 17.0831 21.5415 17.3456 21.5415C17.4183 21.5415 17.4922 21.529 17.5645 21.5029C21.1077 20.218 23.4883 16.8213 23.4883 13.0506Z" fill="#FFC38E"/>
<path d="M14.4998 20.7548C14.331 20.7548 14.1653 20.8235 14.0459 20.9429C13.9265 21.0623 13.8578 21.2279 13.8578 21.3968C13.8578 21.5657 13.9265 21.7313 14.0459 21.8507C14.1653 21.9702 14.331 22.0389 14.4998 22.0389C14.6687 22.0389 14.8343 21.9702 14.9538 21.8507C15.0732 21.7313 15.1419 21.5657 15.1419 21.3968C15.1419 21.2279 15.0732 21.0623 14.9538 20.9429C14.8343 20.8235 14.6687 20.7548 14.4998 20.7548Z" fill="#FFC38E"/>
</svg>
