<svg width="15" height="9" viewBox="0 0 15 9" fill="none" xmlns="http://www.w3.org/2000/svg">
<path fill-rule="evenodd" clip-rule="evenodd" d="M14.1379 4.4957C14.2317 4.58947 14.2843 4.71665 14.2843 4.84925C14.2843 4.98186 14.2317 5.10904 14.1379 5.20281L10.6024 8.73834C10.5086 8.83211 10.3814 8.88479 10.2488 8.88479C10.1162 8.88479 9.98902 8.83211 9.89525 8.73834C9.80148 8.64457 9.74881 8.5174 9.74881 8.38479C9.74881 8.25218 9.80148 8.125 9.89525 8.03124L13.0772 4.84925L9.89525 1.66727C9.80148 1.57351 9.74881 1.44633 9.74881 1.31372C9.74881 1.18111 9.80148 1.05394 9.89525 0.960168C9.98902 0.866399 10.1162 0.813721 10.2488 0.813721C10.3814 0.813721 10.5086 0.866399 10.6024 0.960168L14.1379 4.4957Z" fill="black"/>
<path fill-rule="evenodd" clip-rule="evenodd" d="M14.2843 4.84925C14.2844 4.91502 14.2722 4.98016 14.247 5.04094C14.2219 5.10171 14.1844 5.1563 14.1379 5.20281C14.0914 5.24931 14.0368 5.28682 13.976 5.31195C13.9152 5.33708 13.8501 5.34997 13.7843 5.34989H1.05642C0.923643 5.34989 0.796304 5.29714 0.702418 5.20325C0.608532 5.10937 0.555786 4.98203 0.555786 4.84925C0.555786 4.71648 0.608532 4.58914 0.702418 4.49525C0.796304 4.40137 0.923643 4.34862 1.05642 4.34862H13.7843C13.8501 4.34854 13.9152 4.36143 13.976 4.38656C14.0368 4.41169 14.0914 4.4492 14.1379 4.4957C14.1844 4.54221 14.2219 4.5968 14.247 4.65757C14.2722 4.71835 14.2844 4.78349 14.2843 4.84925Z" fill="black"/>
</svg>
